<?xml version="1.0" standalone="no"?>
<!DOCTYPE svg PUBLIC "-//W3C//DTD SVG 20010904//EN"
 "http://www.w3.org/TR/2001/REC-SVG-20010904/DTD/svg10.dtd">
<svg version="1.0" xmlns="http://www.w3.org/2000/svg"
 width="720.000000pt" height="720.000000pt" viewBox="0 0 720.000000 720.000000"
 preserveAspectRatio="xMidYMid meet">
<metadata>
Created by potrace 1.14, written by Peter Selinger 2001-2017
</metadata>
<g transform="translate(0.000000,720.000000) scale(0.100000,-0.100000)"
fill="#000000" stroke="none">
<path d="M1798 6172 c-1503 -405 -1443 -386 -1501 -465 -31 -42 -47 -90 -47
-143 0 -26 220 -865 540 -2061 298 -1110 547 -2042 556 -2071 18 -65 81 -137
143 -165 78 -34 119 -27 651 116 l495 134 23 -33 c12 -18 41 -44 65 -58 52
-31 2827 -776 2889 -776 22 0 58 5 80 12 48 14 120 76 142 122 27 58 1116
4135 1116 4180 0 22 -5 58 -11 80 -13 49 -82 124 -134 147 -74 32 -2818 761
-2865 761 -107 0 -206 -77 -238 -184 -9 -32 -19 -58 -22 -58 -3 0 -47 156 -98
348 -102 382 -111 403 -197 457 -98 61 -14 79 -1587 -343z m1547 300 c40 -20
64 -42 81 -74 22 -43 1114 -4128 1114 -4168 -1 -84 -63 -159 -153 -185 -192
-55 -2750 -737 -2784 -742 -62 -8 -144 34 -177 90 -34 59 -1118 4103 -1119
4172 0 89 60 162 156 189 80 23 2705 726 2746 735 43 11 94 4 136 -17z m2024
-948 c774 -207 1421 -385 1439 -396 49 -30 85 -99 84 -161 0 -35 -175 -703
-546 -2087 -301 -1119 -549 -2043 -552 -2053 -9 -28 -64 -86 -98 -104 -17 -9
-53 -16 -81 -16 -34 0 -489 118 -1435 372 -762 205 -1399 379 -1416 387 -17 8
-42 26 -54 39 -27 28 -34 24 100 59 l95 25 1375 -369 c756 -202 1376 -368
1376 -367 6 8 1105 4129 1103 4131 -10 7 -2854 764 -2858 761 -2 -3 -30 -100
-61 -217 -65 -240 -54 -236 -105 -44 l-26 99 21 81 c28 104 51 155 83 184 28
26 89 51 126 52 14 0 657 -169 1430 -376z"/>
<path d="M673 5619 c-18 -5 -33 -13 -33 -17 0 -4 -9 -101 -20 -216 -11 -116
-18 -211 -16 -214 2 -2 20 0 39 3 30 6 35 11 41 43 3 21 6 49 6 63 0 25 6 28
77 48 42 11 77 20 78 18 62 -94 66 -98 98 -92 18 4 36 10 40 14 13 12 -235
356 -258 358 -11 1 -35 -3 -52 -8z m81 -145 c21 -31 36 -57 34 -59 -6 -6 -82
-24 -85 -21 -4 4 8 136 12 136 1 0 19 -25 39 -56z"/>
<path d="M872 5107 c-12 -13 -22 -29 -22 -35 0 -16 -11 -15 -34 3 -31 24 -74
18 -102 -12 -23 -24 -25 -35 -22 -80 6 -73 40 -112 141 -165 l82 -43 36 55
c64 97 72 118 67 183 -4 52 -9 64 -36 88 -40 36 -80 38 -110 6z"/>
<path d="M2607 4889 c-172 -40 -287 -188 -322 -414 l-7 -39 -36 44 c-64 78
-115 119 -191 158 -71 35 -80 37 -170 37 -87 0 -102 -3 -164 -32 -263 -125
-324 -473 -145 -828 103 -204 273 -352 563 -491 399 -189 422 -202 474 -255
33 -33 52 -47 54 -38 3 8 10 36 16 64 16 66 53 129 179 304 278 386 352 571
340 853 -9 204 -70 373 -178 490 -117 127 -269 181 -413 147z"/>
<path d="M4010 3008 c0 -8 -14 -34 -31 -58 -44 -61 -69 -119 -69 -163 0 -117
114 -177 168 -88 16 26 19 28 37 15 30 -22 78 -17 105 11 19 21 22 32 18 79
-6 75 -39 116 -126 157 -37 17 -75 38 -84 47 -16 13 -18 13 -18 0z"/>
<path d="M4278 2619 c-24 -9 -28 -17 -34 -70 l-7 -59 -51 -15 c-105 -29 -98
-31 -135 25 -22 32 -40 49 -49 45 -8 -3 -25 -8 -38 -11 -13 -3 -24 -8 -24 -11
0 -4 236 -341 249 -355 6 -7 84 12 95 23 4 4 46 396 46 432 0 9 -18 8 -52 -4z
m-55 -293 l-8 -58 -32 44 c-44 62 -44 70 2 83 47 14 48 13 38 -69z"/>
</g>
</svg>
